<?xml version="1.0" encoding="UTF-8" standalone="no"?>
<!DOCTYPE svg PUBLIC "-//W3C//DTD SVG 1.1//EN" "http://www.w3.org/Graphics/SVG/1.1/DTD/svg11.dtd">
<svg version="1.1" xmlns="http://www.w3.org/2000/svg" xmlns:xlink="http://www.w3.org/1999/xlink" preserveAspectRatio="xMidYMid meet" viewBox="0 0 1920 1080" width="1920" height="1080"><defs><path d="M317.79 817C365.81 820.85 529.73 851.78 698.82 846.51C759.13 844.62 963.62 802.55 1083.23 800.55C1202.84 798.54 1293.31 838.96 1416.79 842.65C1473.59 844.35 1585.34 817.65 1733.73 817C1833.74 816.57 1964.08 853.06 2000.45 789.63C2036.82 726.19 1952.34 196.27 1952.34 124.45C2020.46 -48.31 1999.03 -126.93 1888.04 -111.41C1721.56 -88.13 1202.07 -105.61 1153.15 -58.39C1138.94 -44.68 1110.7 -0.92 1059.19 41.06C1027.77 66.66 501.27 100.67 650.82 102.1C800.36 103.52 755.43 124.98 866.43 138.96C926.37 146.52 949.51 223.96 926.21 302.18C906.37 368.8 920.16 439.97 866.43 479.71C834.37 503.43 730.32 528.24 657.27 555.28C599.88 576.52 538.7 616.39 450.48 618.87C250 624.52 254.88 538.23 210.05 461.84C165.22 385.46 162.02 243.44 216.58 157.25C271.13 71.06 1229.63 138.29 1195.4 52.21C1188.95 35.97 1147.59 -73.04 1031.25 -95.07C682.23 -161.14 -34.46 -146.36 -50.84 -111.41C-122.43 41.37 -123.75 652.46 -138.25 690.02C-153.33 729.11 -182.63 802.06 -118.91 820.71C-55.2 839.36 146.3 803.26 317.79 817Z" id="b29oi29g3N"></path></defs><g><g><g><use xlink:href="#b29oi29g3N" opacity="1" fill="#b9cedd" fill-opacity="1"></use><g><use xlink:href="#b29oi29g3N" opacity="1" fill-opacity="0" stroke="#000000" stroke-width="1" stroke-opacity="0"></use></g></g></g></g></svg>