<svg id="Vectors" xmlns="http://www.w3.org/2000/svg" viewBox="0 0 1920.5 678"><defs><style>.cls-1{fill:#feebc8;}.cls-2{fill:#fbd38d;}.cls-3,.cls-4{fill:none;stroke-miterlimit:10;stroke-width:2px;}.cls-3{stroke:#ed8936;}.cls-4{stroke:#fbd38d;}</style></defs><path class="cls-1" d="M0,658c160.17,0,242.59-28,321.33-55,78.58-27,159.84-55,319.67-55s241.09,27.93,319.68,55,160.15,55,320.32,55,241.59-28,320.33-55c78.58-27,158.84-55,318.67-55V0H0Z"/><path class="cls-2" d="M0,658c160.17,0,241.59-28,320.33-55,78.58-27,159.84-55,319.67-55s241.09,27.93,319.68,55,160.15,55,320.32,55,241.59-28,320.33-55c78.58-27,159.84-55,319.67-55v-2q-20.28,0-38.92.58c-135,4.14-209.31,29.69-281.4,54.47-78.59,27-159.85,55-319.68,55s-241.09-27.93-319.67-55C881.59,574,800.17,546,640,546s-241.59,28-320.33,55c-78.58,27-159.84,55-319.67,55Z"/><path class="cls-2" d="M0,619.5c160.05,0,241.42-8.64,320.11-17s159.94-17,319.89-17,241.26,8.64,319.9,17,160.05,17,320.1,17,241.42-8.64,320.11-17,159.94-17,319.89-17v-2c-160,0-241.42,8.64-320.11,17s-159.94,17-319.89,17-241.26-8.64-319.89-17-160.06-17-320.11-17-241.42,8.65-320.11,17S160,617.5,0,617.5Z"/><path class="cls-3" d="M1920,566c-320,0-320,72-640,72s-320-72-640-72S320,638,0,638"/><path class="cls-4" d="M1920.5,527c-320,0-320,150-640,150s-320-150-640-150S320.5,677,.5,677"/></svg>
