<?xml version="1.0"?>
<svg width="270.53061224489807" height="271.53061224489784" xmlns="http://www.w3.org/2000/svg" xmlns:svg="http://www.w3.org/2000/svg" xmlns:xlink="http://www.w3.org/1999/xlink" preserveAspectRatio="xMidYMid meet">
 <defs>
  <path d="m497.82,230.54c0,73.56 -59.71,133.27 -133.26,133.27c-73.55,0 -133.27,-59.71 -133.27,-133.27c0,-73.55 59.72,-133.26 133.27,-133.26c73.55,0 133.26,59.71 133.26,133.26z" id="i1IYEbLIXN"/>
  <path d="m344.56,177.87l40,0l0,186.94l-40,0l0,-186.94z" id="eXrnj3m7"/>
  <path d="m451.03,177.87l0,40l-172.95,0l0,-40l172.95,0z" id="bBDnkOUKd"/>
 </defs>
 <g class="layer">
  <title>Layer 1</title>
  <g id="svg_1">
   <g id="svg_2">
    <use fill="#ea580c" id="svg_3" x="-229" xlink:href="#i1IYEbLIXN" y="-95"/>
   </g>
   <g id="svg_4">
    <use fill="#ffffff" id="svg_5" transform="matrix(1 0 0 0.994651 0 0.443295)" x="-229" xlink:href="#eXrnj3m7" y="-95"/>
   </g>
   <g id="svg_6" transform="matrix(1 0 0 1 0 0)">
    <use fill="#ffffff" id="svg_7" x="-229" xlink:href="#bBDnkOUKd" y="-95"/>
   </g>
  </g>
 </g>
</svg>